<?xml version="1.0" standalone="no"?><!DOCTYPE svg PUBLIC "-//W3C//DTD SVG 1.1//EN" "http://www.w3.org/Graphics/SVG/1.1/DTD/svg11.dtd"><svg t="1554694315905" class="icon" style="" viewBox="0 0 1024 1024" version="1.1" xmlns="http://www.w3.org/2000/svg" p-id="4408" xmlns:xlink="http://www.w3.org/1999/xlink" width="200" height="200"><defs><style type="text/css"></style></defs><path d="M879.4 1024H123.3c-51.5 0-94.4-35.4-106.8-83 0 0-2.7-44.7-0.8-52.7C35.3 702.7 156.6 547.6 323 479.8c-64.1-59.4-100.4-148.4-85.8-245.6 18.3-122 119.6-219 242.3-232.4 166.9-18.3 308 111.9 308 275 0 80.3-174.7 273-276.8 276.8 0 0-1.8 0.1-4.7 0.2h-0.7c-3.2 0.1-7.7 0.3-12.6 0.5-4.9 0.2-8.9 0.3-12.6 0.5-0.9 0-1.8 0.1-2.7 0.1-7.9 0.3-13.1 0.5-16.3 0.6-1 0-1.8 0.1-2.4 0.1-2.3 0.1-2.1 0.1 0 0 0.6 0 1.4-0.1 2.4-0.1 3.8-0.1 9.8-0.4 16.3-0.6 0.8 0 1.8-0.1 2.7-0.1 4.2-0.2 8.6-0.3 12.6-0.5 3.7-0.1 8.1-0.3 12.6-0.5h0.7c1.7-0.1 2.9-0.1 4.7-0.2-204.6 0-371.8 158.8-386.1 359.8h772.2c-7.4-104.9-56.6-198.1-131-263.3-31.4-27.5-26.2-79.5 12.6-94.9 1.2-0.5 2.5-1 3.8-1.4 18.1-6.4 38.8-2.5 53.3 10.1 93 80.3 156 194.4 169.9 323.3 3.5 35.9 6.4 53.4-19.9 87.2-25.1 32.2-65.1 49.6-106.1 49.6zM472.8 438.6c121.1 26.9 226.7-78.7 199.8-199.8-13.5-61-62.8-110.3-123.8-123.8C427.7 88.1 322.1 193.7 349 314.8c13.5 61 62.7 110.3 123.8 123.8z" fill="#464C56" p-id="4409"></path><path d="M510.8 0C357.9 0 234 123.9 234 276.8c0 152.8 123.9 276.8 276.8 276.8s276.8-123.9 276.8-276.8C787.5 123.9 663.6 0 510.8 0z m0 442.8c-91.6 0-166.1-74.5-166.1-166.1s74.5-166.1 166.1-166.1 166.1 74.5 166.1 166.1-74.6 166.1-166.1 166.1z" fill="#464C56" p-id="4410"></path></svg>