<?xml version="1.0" standalone="no"?><!DOCTYPE svg PUBLIC "-//W3C//DTD SVG 1.1//EN" "http://www.w3.org/Graphics/SVG/1.1/DTD/svg11.dtd"><svg t="1554694285548" class="icon" style="" viewBox="0 0 1024 1024" version="1.1" xmlns="http://www.w3.org/2000/svg" p-id="3681" xmlns:xlink="http://www.w3.org/1999/xlink" width="200" height="200"><defs><style type="text/css"></style></defs><path d="M389.632 70.613333c-0.128 0-0.106667 310.848-0.106667 310.848 0-0.128-291.413333-0.106667-291.413333-0.106666 0.106667 0 0.085333-310.848 0.085333-310.848 0 0.128 291.413333 0.106667 291.413334 0.106666zM32 381.461333c0 38.826667 29.610667 70.506667 66.090667 70.506667h291.541333c36.394667 0 66.090667-31.573333 66.090667-70.506667V70.506667c0-38.826667-29.610667-70.506667-66.090667-70.506667H98.090667C61.696 0 32 31.573333 32 70.506667V381.44z m893.909333-310.826666c-0.128 0-0.106667 310.826667-0.106666 310.826666 0-0.128-291.413333-0.106667-291.413334-0.106666 0.106667 0 0.085333-310.848 0.085334-310.848 0 0.128 291.413333 0.106667 291.413333 0.106666zM568.277333 381.44c0 38.826667 29.610667 70.506667 66.090667 70.506667h291.541333c36.394667 0 66.090667-31.573333 66.090667-70.506667V70.506667C992 31.68 962.389333 0 925.909333 0H634.368c-36.394667 0-66.090667 31.573333-66.090667 70.506667V381.44z m-178.645333 261.184c-0.128 0-0.106667 310.848-0.106667 310.848 0-0.128-291.413333-0.106667-291.413333-0.106667 0.106667 0 0.085333-310.848 0.085333-310.848 0 0.128 291.413333 0.106667 291.413334 0.106667zM32 953.493333C32 992.32 61.610667 1024 98.090667 1024h291.541333c36.394667 0 66.090667-31.573333 66.090667-70.506667V642.56c0-38.826667-29.610667-70.506667-66.090667-70.506667H98.090667C61.696 572.032 32 603.605333 32 642.538667v310.954666z m893.909333-310.826666c-0.128 0-0.106667 310.826667-0.106666 310.826666 0-0.128-291.413333-0.106667-291.413334-0.106666 0.106667 0 0.085333-310.848 0.085334-310.848 0 0.128 291.413333 0.106667 291.413333 0.106666z m-357.632 310.826666c0 38.826667 29.610667 70.506667 66.090667 70.506667h291.541333C962.304 1024 992 992.426667 992 953.493333V642.56c0-38.826667-29.610667-70.506667-66.090667-70.506667H634.368c-36.394667 0-66.090667 31.573333-66.090667 70.506667v310.954667z" p-id="3682"></path></svg>